<svg xmlns="http://www.w3.org/2000/svg" xmlns:xlink="http://www.w3.org/1999/xlink" viewBox="0 0 80 28">
    <path
        d="M 18.165 0.552 C 16.177 0.552 14.528 1.968 14.234 3.799 L 13.692 8.789 L 18.527 8.244 C 20.56 8.07 22.164 6.414 22.164 4.387 C 22.142 2.274 20.357 0.552 18.165 0.552 Z"
        fill="rgb(255,255,255)"></path>
    <path
        d="M 0 15.849 C 0 19.27 2.869 22.06 6.439 22.06 C 9.828 22.06 12.607 19.51 12.856 16.307 L 13.692 8.789 L 5.807 9.661 C 2.53 9.988 0 12.624 0 15.849 Z"
        fill="rgb(255,255,255)"></path>
    <path
        d="M 33.506 20.251 C 33.665 14.455 30.411 10.511 25.147 10.511 C 20.108 10.511 16.606 14.15 16.606 19.031 C 16.606 23.759 19.792 27.704 25.282 27.704 C 29.937 27.704 32.399 24.98 33.326 22.539 L 28.807 22.539 C 27.926 23.977 26.593 24.435 25.237 24.435 C 23.158 24.435 21.193 23.062 20.944 20.251 Z M 25.124 13.583 C 26.954 13.583 28.988 14.564 29.078 17.331 L 21.012 17.331 C 21.351 14.564 23.475 13.583 25.124 13.583 Z"
        fill="rgb(255,255,255)"></path>
    <path
        d="M 39.855 10.881 L 35.495 10.881 L 35.495 27.29 L 39.855 27.29 L 39.855 18.748 C 39.855 16.154 40.488 13.888 43.357 13.888 C 45.82 13.888 46.294 15.74 46.294 17.854 L 46.294 27.29 L 50.655 27.29 L 50.655 16.939 C 50.655 12.886 48.847 10.511 44.781 10.511 C 42.657 10.511 40.827 11.36 39.855 13.038 Z"
        fill="rgb(255,255,255)"></path>
    <path
        d="M 54.134 10.881 L 51.739 10.881 L 51.739 13.779 L 54.134 13.779 L 54.134 22.866 C 54.134 26.135 54.857 27.29 58.789 27.29 L 61.974 27.29 L 61.974 24.261 L 60.641 24.261 C 59.082 24.261 58.495 23.934 58.495 22.256 L 58.495 13.779 L 62.042 13.779 L 62.042 10.881 L 58.495 10.881 L 58.495 6.414 L 54.134 6.414 Z"
        fill="rgb(255,255,255)"></path>
    <path
        d="M 73.768 10.968 C 73.474 10.946 73.113 10.903 72.819 10.903 C 70.831 10.903 69.317 11.687 68.323 13.736 L 68.323 10.859 L 64.03 10.859 L 64.03 27.268 L 68.391 27.268 L 68.391 18.66 C 68.391 15.588 69.814 14.825 71.961 14.825 C 72.593 14.825 73.136 14.825 73.768 14.912 Z"
        fill="rgb(255,255,255)"></path>
    <path
        d="M 75.191 10.881 L 75.191 27.29 L 79.552 27.29 L 79.552 10.881 Z M 77.315 5.608 C 76.14 5.608 75.169 6.523 75.169 7.678 C 75.169 8.811 76.118 9.748 77.315 9.748 L 77.406 9.748 C 78.581 9.748 79.552 8.833 79.552 7.678 C 79.552 6.545 78.603 5.608 77.406 5.608 Z"
        fill="rgb(255,255,255)"></path>
</svg>